Coordinates
version=1
nRows=32
nColumns=22
inDegrees=yes

Units are S.I. units (second, meters, Newtons, ...)
If the header above contains a line with 'inDegrees', this indicates whether rotational values are in degrees (yes) or radians (no).

endheader
time	pelvis_tilt	pelvis_list	pelvis_rotation	pelvis_tx	pelvis_ty	pelvis_tz	hip_flexion_r	hip_adduction_r	hip_rotation_r	knee_angle_r	ankle_angle_r	subtalar_angle_r	hip_flexion_l	hip_adduction_l	hip_rotation_l	knee_angle_l	ankle_angle_l	subtalar_angle_l	lumbar_extension	lumbar_bending	lumbar_rotation
      4.78000000	      5.24031240	      2.14054240	   -182.98342030	     -0.30005615	      0.86084839	     -0.30989627	     34.03150937	     -2.01709207	      1.88100738	     -9.00058950	      1.15032448	      7.22866106	     -9.54987816	     -1.21660265	      0.03786176	     -6.83988431	     21.61123197	      4.18768520	     -2.81354191	     -0.85192460	      0.30920379
      4.79000000	      5.24994837	      2.13953687	   -182.65160057	     -0.30859877	      0.85879086	     -0.31066936	     34.05739224	     -1.99956972	      1.41896853	     -8.16092299	      1.31809516	      6.90590524	    -10.05899196	     -1.31839089	      0.28014079	     -7.00044287	     22.00633075	      4.23803955	     -2.74476356	     -0.73343608	      0.08988644
      4.80000000	      5.27576116	      2.09861938	   -182.31912019	     -0.31723608	      0.85667331	     -0.31148745	     34.07937216	     -2.01296607	      0.92767133	     -7.41020614	      1.50920091	      6.61601528	    -10.52510060	     -1.39077722	      0.52631618	     -7.21929391	     22.41250231	      4.29242658	     -2.65551683	     -0.65598229	     -0.16078528
      4.81000000	      5.30036764	      2.08923321	   -182.01896445	     -0.32611048	      0.85455024	     -0.31245402	     34.03697106	     -1.96200496	      0.42268712	     -6.70611676	      1.76831703	      5.99924265	    -11.02787554	     -1.51055191	      0.75765592	     -7.41374803	     22.73568059	      4.41957930	     -2.55053617	     -0.54235030	     -0.34123082
      4.82000000	      5.37781313	      2.01022149	   -181.68316667	     -0.33507838	      0.85232344	     -0.31340498	     34.04541180	     -1.99378265	     -0.11929052	     -6.13341544	      2.03930479	      5.71898937	    -11.42874347	     -1.57532543	      1.05256995	     -7.69407704	     23.04905663	      4.50516013	     -2.38162823	     -0.50288288	     -0.57211792
      4.83000000	      5.46529645	      1.95347218	   -181.37935317	     -0.34431983	      0.85007594	     -0.31453371	     34.00352009	     -1.96860685	     -0.60717408	     -5.62207019	      2.32686063	      5.10198130	    -11.86875933	     -1.68122379	      1.31797135	     -7.92314326	     23.27861812	      4.69955160	     -2.17802165	     -0.43957811	     -0.76250096
      4.84000000	      5.58740905	      1.83921386	   -181.06062680	     -0.35372269	      0.84776165	     -0.31571886	     33.98861303	     -2.00021676	     -1.05677822	     -5.24998924	      2.58472822	      4.62758456	    -12.26628364	     -1.74517524	      1.62917077	     -8.17626152	     23.46908342	      4.89282898	     -1.92549879	     -0.44247963	     -0.96986765
      4.85000000	      5.73521754	      1.71193869	   -180.73557492	     -0.36335181	      0.84541723	     -0.31698141	     33.97262387	     -2.04192476	     -1.46233305	     -4.99942359	      2.76612220	      4.16310853	    -12.65603848	     -1.81437009	      1.97205434	     -8.41739718	     23.57649825	      5.11966940	     -1.62686176	     -0.45759025	     -1.17001538
      4.86000000	      5.91046817	      1.56995565	   -180.40334832	     -0.37320018	      0.84304883	     -0.31832970	     33.95730239	     -2.09822031	     -1.78341402	     -4.86638269	      2.79562430	      3.66322263	    -13.04139229	     -1.88933588	      2.33896433	     -8.63158950	     23.63383137	      5.40480224	     -1.28083728	     -0.48742337	     -1.39325618
      4.87000000	      6.10944410	      1.43430399	   -180.05615164	     -0.38324491	      0.84070671	     -0.31972765	     33.95282741	     -2.16053684	     -2.06981828	     -4.86974476	      2.57648312	      3.25204492	    -13.41194721	     -1.99085685	      2.75393055	     -8.84392790	     23.59762845	      5.69190222	     -0.89601616	     -0.50729048	     -1.61103194
      4.88000000	      6.33903605	      1.33665155	   -179.71103899	     -0.39347130	      0.83842008	     -0.32123539	     33.95879823	     -2.18839951	     -2.28498701	     -4.98192232	      2.01657209	      2.79032181	    -13.75893997	     -2.15262470	      3.18392639	     -9.05476464	     23.48442765	      6.05053117	     -0.46448053	     -0.48429163	     -1.82799384
      4.89000000	      6.58334953	      1.29756162	   -179.36550364	     -0.40381603	      0.83627314	     -0.32283680	     33.98531963	     -2.17106761	     -2.46981790	     -5.23113265	      1.04179075	      2.36884927	    -14.07926487	     -2.39412104	      3.62976347	     -9.28973738	     23.29961547	      6.42370811	     -0.01344749	     -0.39601332	     -2.02942245
      4.90000000	      6.83235800	      1.34730528	   -179.04339147	     -0.41422598	      0.83435196	     -0.32453171	     34.04488065	     -2.07271424	     -2.64812861	     -5.63373983	     -0.33814676	      1.92532318	    -14.36551804	     -2.73481852	      4.07405964	     -9.57782024	     23.01737193	      6.85222422	      0.43940835	     -0.19916241	     -2.17600863
      4.91000000	      7.07061467	      1.49708954	   -178.75654562	     -0.42465218	      0.83275041	     -0.32633977	     34.14822037	     -1.87985902	     -2.83059215	     -6.21671539	     -2.03752401	      1.45504482	    -14.63204655	     -3.18239426	      4.49175183	     -9.91016902	     22.62298602	      7.34205478	      0.87183961	      0.11893537	     -2.30543140
      4.92000000	      7.27677620	      1.76043923	   -178.50152527	     -0.43500943	      0.83157658	     -0.32819932	     34.27694696	     -1.58905807	     -3.06148548	     -6.96898446	     -3.89542897	      1.04206977	    -14.85122062	     -3.73985285	      4.89561539	    -10.36992190	     22.14538246	      7.80820227	      1.24843660	      0.57910812	     -2.39736597
      4.93000000	      7.43939235	      2.13185794	   -178.30726506	     -0.44526840	      0.83090379	     -0.33012049	     34.42191683	     -1.18918228	     -3.31589455	     -7.88732925	     -5.67139266	      0.63424883	    -15.03472357	     -4.38839905	      5.25339295	    -10.95447071	     21.54566810	      8.28735706	      1.55288761	      1.18038304	     -2.43819780
      4.94000000	      7.55198653	      2.59964949	   -178.18247465	     -0.45539874	      0.83079275	     -0.33207012	     34.55726329	     -0.68350591	     -3.58048260	     -8.93741906	     -7.14375612	      0.23657465	    -15.17347908	     -5.10545671	      5.54748785	    -11.68711925	     20.80075037	      8.76062050	      1.77547433	      1.91360458	     -2.42965618
      4.95000000	      7.61872539	      3.13294958	   -178.12784150	     -0.46536565	      0.83127613	     -0.33401857	     34.64861884	     -0.09273152	     -3.82281985	    -10.04770575	     -8.18397550	     -0.16496120	    -15.24503458	     -5.85157393	      5.78611054	    -12.59097158	     19.88975522	      9.23968611	      1.91633165	      2.74385402	     -2.36187715
      4.96000000	      7.65507998	      3.69850948	   -178.14090630	     -0.47516480	      0.83233989	     -0.33593024	     34.67656543	      0.55783510	     -3.99392321	    -11.15445172	     -8.73570930	     -0.55588429	    -15.23233168	     -6.58830237	      5.95895519	    -13.65524948	     18.77845254	      9.73468287	      1.99653803	      3.63557896	     -2.27778848
      4.97000000	      7.67411869	      4.24843033	   -178.20425877	     -0.48477139	      0.83395343	     -0.33778910	     34.61406525	      1.22323582	     -4.08668153	    -12.17508904	     -8.83536458	     -0.88927945	    -15.08863015	     -7.26783189	      6.08546594	    -14.92548526	     17.45584006	     10.24117974	      2.02833959	      4.52279508	     -2.16367539
      4.98000000	      7.68872948	      4.73847587	   -178.27593495	     -0.49416675	      0.83605777	     -0.33952508	     34.43910336	      1.84165943	     -4.09191177	    -13.03774895	     -8.59386501	     -1.11550510	    -14.76582480	     -7.85414218	      6.16886066	    -16.43129713	     15.93326917	     10.74071177	      2.03105565	      5.35127740	     -2.08199732
      4.99000000	      7.72065537	      5.10513031	   -178.35468871	     -0.50337403	      0.83856657	     -0.34116430	     34.15589203	      2.35745756	     -3.99702742	    -13.69390378	     -8.13680502	     -1.31628932	    -14.26076627	     -8.28545520	      6.24942311	    -18.11773069	     14.13713445	     11.41943954	      2.03546076	      6.03666305	     -1.99145515
      5.00000000	      7.77562470	      5.34322102	   -178.37544205	     -0.51234840	      0.84135820	     -0.34263870	     33.76649700	      2.72834441	     -3.87129464	    -14.12279900	     -7.55811871	     -1.43749540	    -13.49924407	     -8.57918526	      6.30360746	    -20.07123306	     12.18822115	     12.12958270	      2.05454121	      6.56712274	     -1.98899541
      5.01000000	      7.84166095	      5.42629811	   -178.34693966	     -0.52113421	      0.84436414	     -0.34398942	     33.25360398	      2.93906502	     -3.70315714	    -14.30526192	     -6.94826318	     -1.57715741	    -12.53563744	     -8.71482133	      6.33263435	    -22.20631513	     10.05976637	     13.07862666	      2.08285896	      6.90625626	     -2.02261513
      5.02000000	      7.95320449	      5.35309402	   -178.20996209	     -0.52961536	      0.84739959	     -0.34514850	     32.69734028	      2.94796507	     -3.57434098	    -14.29645491	     -6.38560459	     -1.73764666	    -11.27802198	     -8.70674549	      6.36447722	    -24.59071184	      7.90746282	     14.07223368	      2.15810823	      7.04576240	     -2.17403565
      5.03000000	      8.05185748	      5.17294127	   -178.01314130	     -0.53789631	      0.85044988	     -0.34623347	     32.04315993	      2.83714232	     -3.48465518	    -14.11042250	     -5.85694821	     -1.99709144	     -9.86980891	     -8.61330912	      6.31593954	    -27.10885358	      5.77419968	     15.38335516	      2.21918072	      7.04192852	     -2.33974680
      5.04000000	      8.19557942	      4.88105395	   -177.70438195	     -0.54580884	      0.85330617	     -0.34711156	     31.42060691	      2.55705517	     -3.47817543	    -13.85231513	     -5.39748554	     -2.27857046	     -8.19851567	     -8.42733376	      6.24460978	    -29.82738185	      3.88116638	     16.55905155	      2.32374776	      6.89497052	     -2.60170127
      5.05000000	      8.28768507	      4.55545403	   -177.38470468	     -0.55353441	      0.85604468	     -0.34800445	     30.72477655	      2.25112965	     -3.52766304	    -13.52573506	     -4.95148790	     -2.70077028	     -6.49635151	     -8.23999554	      6.01557580	    -32.57848202	      2.24306157	     18.00627632	      2.36428573	      6.69395286	     -2.79372690
      5.06000000	      8.37147780	      4.22113173	   -177.02640353	     -0.56095707	      0.85853156	     -0.34880942	     30.04677837	      1.91468409	     -3.64977447	    -13.19987092	     -4.55365451	     -3.11878315	     -4.69032338	     -8.06858948	      5.68659478	    -35.39944059	      1.04002356	     19.13270736	      2.38536251	      6.47617522	     -2.98407831
      5.07000000	      8.40604768	      3.93725765	   -176.68580962	     -0.56817142	      0.86079130	     -0.34962150	     29.33973321	      1.63833004	     -3.80361042	    -12.87405026	     -4.16224104	     -3.50830828	     -2.88632570	     -7.98211811	      5.19957168	    -38.20903910	      0.31417580	     19.89741207	      2.34584686	      6.31606700	     -3.09775627
      5.08000000	      8.34961560	      3.73271428	   -176.42088144	     -0.57528385	      0.86291719	     -0.35053167	     28.54944910	      1.48257553	     -3.98546176	    -12.52706206	     -3.86049424	     -3.83202425	     -1.18684233	     -8.02573473	      4.49065455	    -40.91855074	     -0.00245138	     20.27082554	      2.20523182	      6.25079087	     -3.06832523
      5.09000000	      8.23991269	      3.57905133	   -176.25067956	     -0.58228192	      0.86484131	     -0.35153831	     27.72755920	      1.42689809	     -4.07832300	    -12.19215007	     -3.49209778	     -4.29096885	      0.42218191	     -8.15385878	      3.63282792	    -43.48832300	      0.07287928	     20.34082352	      2.00508208	      6.24999297	     -2.88368875
